# xmcd
#
# Track frame offsets: 
#        150
#        22928
#        47655
#        68522
#        90266
#        108556
#        142268
#        167209
#        187771
#        208855
#        226756
#
# Disc length: 3452 seconds
#
# Revision: 0
# Processed by: cddbd v1.5PL3 Copyright (c) Steve Scherf et al.
# Submitted via: ExactAudioCopy v0.95a5
#
DISCID=890d7a0b
DTITLE=Chris Eaton - CBN - Can Be Done
DYEAR=1977
DGENRE=Blues
TTITLE0=Creepin' And Moaning
TTITLE1=The Rise
TTITLE2=Sneakey Little Thing
TTITLE3=Let Me In
TTITLE4=Fast Talking Woman
TTITLE5=The Things Yo Do
TTITLE6=The Shirty Chef's Shuffle
TTITLE7=Here Comes The Rain
TTITLE8=Angel
TTITLE9=Everybody Gets The Blues
TTITLE10=Strange Love
EXTD=
EXTT0=
EXTT1=
EXTT2=
EXTT3=
EXTT4=
EXTT5=
EXTT6=
EXTT7=
EXTT8=
EXTT9=
EXTT10=
PLAYORDER=
